<svg width="151" height="95" viewBox="0 0 151 95" fill="none" xmlns="http://www.w3.org/2000/svg">
<path d="M41.3286 26.9879L45.1484 19.4721C46.3574 17.2189 49.4602 11.4409 51.63 10.3592C52.424 9.96391 52.8426 9.9684 53.6671 10.3009C57.4985 11.8433 55.6926 17.9198 54.7049 20.7832C52.8892 26.0495 50.1332 30.9286 47.9599 36.0398C49.2845 34.6274 50.308 32.9236 51.5457 31.426C53.573 28.9739 57.4322 24.6639 60.9571 26.581C62.8311 27.6009 62.8418 29.9114 62.21 31.694C60.3306 36.9997 54.4181 42.9982 51.362 48.0018C48.926 51.991 49.5489 53.6598 49.4853 58.1346C49.4315 61.9374 49.4862 65.9113 49.306 69.6961C49.2442 70.9992 48.8409 72.5138 49.0398 73.8089C49.1832 74.7445 50.196 73.8546 50.559 73.5472C52.6382 71.7825 54.8716 68.2513 56.3683 65.9131C58.8814 61.9849 61.2421 57.7627 63.479 53.6651C64.5635 51.6791 66.6616 48.32 67.3606 46.3438C67.6698 45.4691 67.7469 44.2144 67.9674 43.276C68.7534 39.9295 69.9095 35.7315 71.6043 32.7524C76.3122 24.4748 79.6865 34.9124 80.468 39.2456C81.0542 42.4981 81.5731 45.7621 82.1691 49.0164C82.5186 50.9227 82.671 52.8899 83.1352 54.772C83.3028 55.4495 83.5744 56.983 84.5486 56.7204C84.9044 56.6245 85.9826 55.3814 86.2658 55.0319C87.4551 53.5648 88.7089 51.55 89.6491 49.901C89.8722 49.5093 90.721 48.1139 90.781 47.802C90.8894 47.2365 90.0282 44.7862 89.8552 44.0172C89.1024 40.6769 88.414 35.5012 90.4557 32.5131C92.3207 29.7823 94.719 32.203 95.5929 34.337C97.3361 38.5932 95.6807 41.8985 93.9241 45.7496C93.648 46.3546 92.6918 47.9221 92.6738 48.45C92.6496 49.1651 93.9304 51.9569 94.3086 52.7393C94.5237 53.1839 95.5158 55.1583 95.8653 55.3061C96.0715 55.3931 95.9648 55.1878 95.9594 55.1233C95.7685 53.0073 95.5543 51.4855 96.4309 49.4206C97.6506 46.5464 101.409 46.2273 104.063 47.1083C104.322 47.1943 105.381 47.8584 105.547 47.6039C105.666 47.4238 105.565 45.1375 105.584 44.6831C105.697 41.9648 106.132 34.976 107.831 32.9487C108.483 32.1708 109.423 31.936 110.107 32.8179C111.636 34.7887 110.77 40.5201 110.416 42.9713C110.011 45.7657 109.384 48.5333 108.833 51.2991C109.765 52.5278 111.152 55.972 112.37 56.7258C113.233 57.2599 114.438 56.2077 115.045 55.5768C115.313 55.2981 116.296 54.0908 116.393 53.787C116.442 53.6338 116.472 53.4877 116.387 53.3371C114.916 51.6325 113.862 49.5344 114.596 47.2418C115.425 44.6535 118.238 44.2475 119.408 46.8206C120.501 49.227 119.513 51.4192 118.634 53.6956C118.723 54.0066 120.592 55.394 120.975 55.6494C121.492 55.9953 122.993 56.9516 123.556 56.9265C124.12 56.9014 124.716 55.869 124.993 55.3985C126.082 53.554 126.94 51.067 127.342 48.9644C127.441 48.4482 127.329 47.5582 127.768 47.24C128.557 46.6673 128.997 47.8647 129.164 48.4464C129.681 50.2505 129.65 51.939 130.461 53.7816C131.478 56.0912 133.926 57.6408 136.238 58.4447C136.388 58.2861 135.545 57.2581 135.415 56.983C134.152 54.3015 135.11 50.73 137.591 49.0881C140.111 47.4202 144.222 47.9337 145.513 50.9191C145.66 51.2587 145.969 52.5977 146.052 52.7133C146.113 52.7985 146.451 52.8818 146.654 53.2744C147.323 54.5712 147.237 55.9156 148.797 56.7778C149.31 57.061 150.519 57.0959 150.711 57.5521C150.779 57.7134 150.733 57.8828 150.781 58.0199C150.899 58.3533 151.319 58.7934 150.539 58.8991C148.886 59.1241 147.778 57.6704 146.681 56.741C146.326 56.741 146.095 57.6023 145.934 57.8792C145.585 58.4815 144.689 59.9863 144.126 60.2829C142.892 60.9354 140.534 61.1039 139.165 60.9434C135.235 60.481 130.839 57.8452 129.172 54.1769C129.056 53.9215 128.56 52.3584 128.398 52.3539C127.81 53.3317 127.537 54.5085 127.025 55.5499C126.558 56.4963 125.37 58.6249 124.252 58.7862C123.21 58.9368 121.073 57.4921 120.207 56.8683C119.459 56.3287 118.794 55.6207 118.001 55.2102C117.607 55.2084 116.948 56.3305 116.658 56.655C116.135 57.2384 115.404 57.9205 114.722 58.304C111.784 59.9603 110.262 56.0043 108.977 54.115C108.867 53.9519 108.698 53.6633 108.503 53.6069C108.149 53.6831 107.822 55.7041 107.694 56.1154C106.263 60.6791 99.7828 59.4942 96.5375 57.7726C94.1015 56.4793 92.9391 52.5986 91.7391 50.2899C91.6172 50.2621 91.4585 50.4754 91.3895 50.5651C90.9047 51.1951 90.4521 52.2213 89.9959 52.9356C89.1337 54.2844 88.2312 55.722 87.1719 56.9229C86.264 57.9527 85.0586 59.315 83.6282 58.2234C81.3652 56.4954 81.4225 52.7519 80.8516 50.1994C80.417 50.237 79.8927 50.3697 79.467 50.3822C77.0767 50.4521 73.1924 49.8947 70.9043 49.1687C70.4069 49.011 68.9398 48.2644 68.6234 48.3164C68.5517 48.3281 68.4881 48.3541 68.4334 48.4016C65.8388 53.0333 63.3975 57.7735 60.7025 62.3586C58.651 65.8494 54.4782 73.1403 51.3593 75.4212C50.5876 75.9849 49.7353 76.4671 48.8552 75.7886C47.207 74.5205 47.3719 72.6447 47.5136 70.768C47.9724 64.6682 47.587 58.5129 47.8165 52.4104C47.9886 47.8298 54.2819 40.7782 56.9608 36.9271C58.1043 35.2834 60.9857 31.1625 61.0521 29.2733C61.0951 28.0553 60.1746 27.8814 59.1305 27.9845C55.3914 28.3519 50.9183 35.7073 48.6751 38.5C48.2207 39.0664 47.2169 40.4905 46.4148 40.3256C46.2382 40.2889 45.4406 39.51 45.3456 39.3281C44.9449 38.5627 45.5445 37.1556 45.834 36.375C46.9785 33.2803 48.6688 30.2412 50.04 27.2272C51.5027 24.0115 55.1038 16.4141 54.3034 13.0738C53.979 11.7205 52.8981 11.8227 51.9947 12.6024C49.5381 14.7211 46.2857 21.3783 44.7469 24.4444C42.8971 28.1315 41.3251 32.0812 39.4358 35.7136C39.1669 36.2307 38.8757 37.0517 38.1658 36.8294C37.8235 36.3723 37.206 36.1581 37.2678 35.5191C37.3664 34.492 38.1416 33.119 38.2599 32.0283C39.4923 26.3345 41.0992 20.7223 42.2034 14.9998C42.7214 12.3165 44.1545 4.66718 42.889 2.44273C42.3602 1.51423 40.8859 2.08961 40.1725 2.57178C37.2499 4.54708 35.167 12.14 34.295 15.5152C33.0215 20.4472 32.3618 26.0101 30.8185 30.77C30.5479 31.6053 29.9626 33.6478 28.6989 32.8537C28.6541 32.8259 28.0743 32.2452 28.0277 32.1824C27.1359 30.994 27.6306 27.393 27.7991 25.8676C28.3602 20.7823 29.4204 15.6765 29.5943 10.5447C29.6525 8.80957 29.6418 5.57327 28.8199 4.05236C28.206 2.91683 26.6914 3.47608 25.9574 4.21906C22.9137 7.29762 21.2665 18.1752 20.6409 22.5632C19.811 28.3905 19.4946 34.2769 18.7346 40.1051C18.5661 41.3939 18.5527 42.8019 16.8265 42.5725C15.1237 42.3466 12.5703 38.5215 11.7539 37.0696C10.5063 34.8514 8.28991 28.9192 6.28056 27.755C4.12422 26.5057 2.02166 28.4084 1.65062 30.5486C0.679996 36.1438 5.69084 45.634 8.85006 50.1904C11.2143 53.6006 13.8457 57.0968 16.5075 60.2784C18.0553 62.1283 19.172 62.6445 19.6299 65.2221C20.4384 69.7704 20.5513 75.4956 20.8067 80.1775C20.9062 82.0067 20.683 83.17 21.3919 84.9697C24.5772 93.0582 38.035 92.8198 45.1412 92.4111C52.1892 92.006 59.2166 90.9968 66.1794 89.7887C68.532 89.38 70.8819 88.8961 73.2283 88.4578C73.4953 82.1179 73.6791 75.7779 73.5912 69.4164C74.1317 68.125 74.9015 69.2094 75.4348 69.8233C79.9536 75.0224 83.9329 80.7341 88.4239 85.9618L88.7412 86.0469C88.7716 83.7015 88.7887 81.3543 88.8272 79.0079C88.8711 76.3703 88.8792 73.6726 89.0136 71.0386C89.0405 70.5197 88.8254 69.3116 89.3694 69.0651C89.8373 68.8527 90.1115 69.083 90.2845 69.4908C90.6448 70.3396 90.6501 70.9293 90.6268 71.8452C90.539 75.2052 90.4234 78.6001 90.3508 81.9655C90.3105 83.8413 90.479 85.8605 90.358 87.7085C90.22 89.8228 89.555 89.3504 88.4741 88.1504C84.113 83.3098 80.3148 77.582 76.012 72.65C75.7431 72.2665 75.2914 71.9949 75.2036 72.6429C74.9177 74.766 75.4231 77.5381 75.2116 79.7312L75.0252 81.7853L75.0324 84.7501C74.8119 86.0891 74.9526 87.5347 74.8487 88.8683C74.7841 89.6901 74.7393 90.0934 73.8843 90.3238C71.6814 90.9162 68.7516 91.2693 66.4447 91.6672C58.9549 92.9587 51.4023 94.0969 43.7924 94.3783C36.135 94.6615 25.4304 94.3084 20.9151 86.9701C18.9623 83.7965 19.2159 81.1867 19.1057 77.6663C18.9936 74.0912 18.7848 70.2867 18.3869 66.734C18.3035 65.9892 18.1816 64.5302 17.9208 63.884C17.7129 63.3704 16.3641 62.1094 15.9213 61.5816C10.7474 55.4146 5.2481 48.2367 2.27708 40.7208C0.78844 36.9531 -2.23814 28.1861 2.76015 25.9231C6.67759 24.1495 9.00331 28.6074 10.4722 31.4493C11.6409 33.7123 12.5497 36.1133 14.0115 38.2168C14.3359 38.6837 16.2323 41.1887 16.866 40.7504C17.0156 40.6474 17.2666 38.3575 17.3105 37.964C17.9217 32.4674 18.2309 26.9673 19.025 21.485C19.6936 16.864 21.4018 5.86006 24.6919 2.6399C26.297 1.0688 28.508 0.993518 29.8058 2.97509C31.8859 6.15044 31.2254 12.597 30.8436 16.2752C30.3982 20.5681 29.5477 24.8324 29.2752 29.1361C29.6274 28.2175 29.8766 27.2442 30.1006 26.287C31.0659 22.1652 31.7596 17.9789 32.8413 13.8814C33.8514 10.0562 36.083 2.07348 39.9395 0.366155C41.1584 -0.173377 42.6237 -0.201161 43.5683 0.861772C46.0177 3.61679 44.7639 10.6872 44.1697 14.0964C43.4133 18.4333 42.2813 22.6922 41.3304 26.9852L41.3286 26.9879ZM80.4026 47.9597C80.1571 46.2192 79.7457 44.5092 79.4454 42.7786C78.9041 39.6579 78.6559 36.6905 77.3725 33.7383C76.8876 32.6243 76.1186 30.8408 74.6658 31.9602C72.6108 33.5429 70.8927 39.1462 70.2124 41.6673C70.0556 42.2471 69.1934 45.5336 69.301 45.8419L80.4035 47.9597H80.4026ZM91.8735 45.6295C93.3693 42.2937 95.7166 38.517 94.2736 34.7618C93.5889 32.981 92.4534 32.6037 91.5428 34.4974C90.1518 37.3922 90.8034 42.4748 91.6934 45.4996C91.7319 45.6304 91.6441 45.6555 91.8744 45.6295H91.8735ZM109.261 34.5171C109.093 34.4768 109.088 34.5754 109.009 34.6668C107.758 36.0927 107.256 43.8353 107.197 45.9405C107.172 46.8305 107.121 48.0431 107.196 48.9061C107.208 49.0433 107.181 49.2279 107.337 49.3041C107.519 49.3937 107.47 49.1114 107.494 49.0164C108.099 46.7023 108.566 43.9204 108.892 41.54C109.218 39.1596 109.487 36.8213 109.262 34.5171H109.261ZM116.995 51.9659C117.336 52.2939 117.596 51.3027 117.688 51.0544C118.026 50.1394 118.477 48.5118 118.2 47.5815C118.005 46.9264 117.499 46.834 116.938 47.1674C116.186 47.6165 115.884 49.1643 115.991 49.9691C116.049 50.4091 116.681 51.6638 116.995 51.965V51.9659ZM105.646 55.7265C106.096 55.2147 106.27 52.9231 106.219 52.2141C106.17 51.542 105.852 50.0282 105.363 49.5747C104.158 48.4571 100.273 48.3325 98.9609 49.2664C97.4956 50.3087 97.233 53.3353 97.4553 54.9736C97.6856 56.6729 99.288 57.1542 100.795 57.2805C102.03 57.3836 104.812 56.6756 105.646 55.7274V55.7265ZM140.342 50.1367C136.849 50.5543 134.773 56.0509 138.344 58.0889C139.702 58.8633 142.629 59.3338 143.565 57.752C144.343 56.4372 144.844 52.5798 144.141 51.2166C143.538 50.047 141.502 49.9977 140.342 50.1367Z" fill="#FF8800"></path>
<path d="M112.956 88.6317C112.913 88.5591 112.913 87.9227 112.952 87.8582C113.727 87.4468 114.657 87.8179 115.487 87.8466C117.308 87.9111 121.922 88.0805 123.423 87.3501C124.666 86.7451 123.093 85.6454 122.466 85.1695C119.97 83.2704 116.827 82.7353 114.772 80.3164C112.785 77.9764 114.005 76.1821 116.541 75.2715C119.294 74.2839 122.898 74.2659 125.793 74.4031C126.387 74.4309 127.532 74.231 127.953 74.663C128.141 74.8566 128.425 75.8039 128.27 76.0656L127.91 76.2421C124.51 76.2896 119.758 75.794 116.639 77.34C114.059 78.6189 116.237 80.0888 117.775 80.899C120.182 82.1671 124.027 83.559 125.204 86.2853C125.8 87.6646 125.631 88.4919 124.202 89.1129C122.275 89.95 116.203 89.9402 114.098 89.5046C113.529 89.3872 113.69 89.1945 113.434 88.9149C113.332 88.8037 112.984 88.6783 112.957 88.6308L112.956 88.6317Z" fill="#FF8800"></path>
<path d="M109.243 74.3359C109.953 74.3117 110.661 74.3009 111.372 74.3054C112.057 74.576 113.993 74.0688 114.324 74.8485C114.392 75.0089 114.346 75.1792 114.394 75.3163C114.472 75.535 114.722 75.6435 114.598 75.9195C114.342 76.4895 113.578 76.1955 113.165 76.1875C110.534 76.1364 104.433 76.0629 102.333 77.6412C101.029 78.6216 101.806 79.4372 102.817 80.173C103.994 81.0307 105.291 81.3551 106.531 82.0157C108.336 82.9773 111.651 85.2045 111.777 87.4415C111.874 89.1479 108.928 89.6381 107.694 89.7233C105.248 89.8918 102.445 89.7439 100.039 89.4042C99.7505 88.9122 98.9071 88.672 99.1832 88.0231C99.47 87.35 100.99 87.8206 101.597 87.8457C103.556 87.9272 107.627 88.0688 109.373 87.4594C110.508 87.0633 110.254 86.5309 109.536 85.822C107.342 83.6585 104.041 83.1494 101.823 81.1669C98.5917 78.2793 99.9333 75.9607 103.706 74.9811C105.493 74.5169 107.339 74.3977 109.244 74.3359H109.243Z" fill="#FF8800"></path>
<path d="M95.1645 89.8416C94.8185 89.5485 94.642 89.7331 94.564 89.052C94.4179 87.7695 94.7728 85.7521 94.8364 84.3952C94.9592 81.78 94.8902 78.8179 95.2012 76.2457C95.2828 75.57 95.9039 75.008 96.3439 75.7098C96.948 76.6723 96.7633 78.1708 96.7176 79.2866C96.6217 81.6464 96.3977 84.0134 96.2668 86.3642C96.2104 87.3734 96.2865 88.482 96.1656 89.4894C96.1216 89.855 95.9209 90.4367 95.4602 90.218C95.3016 90.1427 95.2586 89.9222 95.1636 89.8407L95.1645 89.8416Z" fill="#FF8800"></path>
<path d="M133.525 75.4006C134.286 75.1783 134.381 76.3766 134.627 76.8614L134.63 89.7744C134.609 90.1571 134.184 90.4232 133.857 90.1795C133.768 90.1131 133.727 89.9411 133.64 89.8595C133.359 89.5951 133.157 89.6337 133.1 89.1443L133.098 75.9634C133.079 75.7734 133.365 75.4481 133.526 75.4006H133.525Z" fill="#FF8800"></path>
<path d="M128.151 43.3145C128.313 43.2876 128.367 43.3208 128.506 43.3674C129.246 43.6157 129.971 45.5031 129.006 45.7899C128.376 45.9772 127.883 45.4296 127.546 44.9573C127.081 44.3049 127.383 43.4418 128.151 43.3145Z" fill="#FF8800"></path>
<path d="M133.527 70.5681C134.549 70.3019 134.771 71.4545 134.983 72.1947C134.849 72.7558 134.266 73.0892 133.772 72.6984C133.714 72.6527 132.96 71.7977 132.942 71.7368C132.807 71.2905 133.073 70.6864 133.527 70.5672V70.5681Z" fill="#FF8800"></path>
<path d="M95.6081 72.3686C95.4351 72.201 95.1555 72.0765 95.0605 71.7959C94.6384 70.552 96.1987 70.1003 96.663 71.0001C96.6952 71.0628 96.9677 71.8712 96.9794 71.9411C97.0932 72.6106 96.516 73.1394 95.9102 72.7379C95.747 72.6294 95.7139 72.4717 95.6072 72.3686H95.6081Z" fill="#FF8800"></path>
</svg>
